<svg width="18" height="24" viewBox="0 0 18 24" fill="none" xmlns="http://www.w3.org/2000/svg">
<g clip-path="url(#clip0_599_3020)">
<path d="M15.6323 11.1562C16.3462 10.2843 16.7865 9.22088 16.898 8.09953C17.2439 4.52297 14.4375 1.5 10.9416 1.5H1.59375C1.39484 1.5 1.20407 1.57902 1.06342 1.71967C0.922768 1.86032 0.84375 2.05109 0.84375 2.25V4.5C0.84375 4.69891 0.922768 4.88968 1.06342 5.03033C1.20407 5.17098 1.39484 5.25 1.59375 5.25H3.08766V18.75H1.59375C1.39484 18.75 1.20407 18.829 1.06342 18.9697C0.922768 19.1103 0.84375 19.3011 0.84375 19.5V21.75C0.84375 21.9489 0.922768 22.1397 1.06342 22.2803C1.20407 22.421 1.39484 22.5 1.59375 22.5H11.4056C14.7244 22.5 17.6934 20.0742 18.015 16.7625C18.2372 14.4914 17.2467 12.4472 15.6323 11.1562ZM6.82781 5.25H10.9416C11.5383 5.25 12.1106 5.48705 12.5326 5.90901C12.9545 6.33097 13.1916 6.90326 13.1916 7.5C13.1916 8.09674 12.9545 8.66903 12.5326 9.09099C12.1106 9.51295 11.5383 9.75 10.9416 9.75H6.82781V5.25ZM10.9416 18.75H6.82781V13.5H10.9416C11.6378 13.5 12.3054 13.7766 12.7977 14.2688C13.29 14.7611 13.5666 15.4288 13.5666 16.125C13.5666 16.8212 13.29 17.4889 12.7977 17.9812C12.3054 18.4734 11.6378 18.75 10.9416 18.75Z" fill="black"/>
</g>
<defs>
<clipPath id="clip0_599_3020">
<rect width="18" height="24" fill="white"/>
</clipPath>
</defs>
</svg>
