<svg width="20" height="20" viewBox="0 0 20 20" fill="none" xmlns="http://www.w3.org/2000/svg">
<g clip-path="url(#clip0_315_1081)">
<path fill-rule="evenodd" clip-rule="evenodd" d="M1 1C1 0.448 1.45 0 2.004 0H3.509C4.34 0 5.014 0.672 5.014 1.5V2.06L17.588 2.968C18.465 3.023 19.108 3.811 18.985 4.678L18.119 10.712C18.0671 11.0698 17.888 11.3969 17.6145 11.6335C17.3411 11.87 16.9916 12.0001 16.63 12H5.014V14H15.057C15.4517 13.9992 15.8427 14.0762 16.2077 14.2265C16.5726 14.3769 16.9044 14.5977 17.184 14.8763C17.4636 15.1548 17.6856 15.4858 17.8372 15.8502C17.9889 16.2146 18.0673 16.6053 18.068 17C18.068 18.657 16.72 20 15.058 20C14.5775 20.0007 14.1038 19.8862 13.6767 19.666C13.2495 19.4459 12.8814 19.1265 12.6033 18.7347C12.3251 18.3428 12.1449 17.89 12.0779 17.4142C12.0108 16.9384 12.0589 16.4534 12.218 16H6.85C7.00911 16.4534 7.05716 16.9384 6.99013 17.4142C6.92309 17.89 6.74292 18.3428 6.46474 18.7347C6.18655 19.1265 5.81846 19.4459 5.39134 19.666C4.96422 19.8862 4.49053 20.0007 4.01 20C3.61538 20.0007 3.22449 19.9236 2.85966 19.7732C2.49482 19.6228 2.16318 19.402 1.88368 19.1234C1.60417 18.8448 1.38228 18.5139 1.23065 18.1496C1.07903 17.7853 1.00066 17.3946 1 17C1 15.694 1.838 14.582 3.007 14.17V3.01V2H2.004C1.87242 2.00026 1.74207 1.97461 1.6204 1.92449C1.49873 1.87438 1.38812 1.80079 1.29489 1.70794C1.20166 1.61508 1.12764 1.50476 1.07704 1.3833C1.02644 1.26183 1.00026 1.13158 1 1ZM5.014 4.064V10H16.194L16.921 4.93L5.014 4.064ZM14.054 17C14.054 16.448 14.503 16 15.057 16C15.611 16 16.061 16.448 16.061 17C16.061 17.552 15.611 18 15.057 18C14.7914 18.0003 14.5366 17.8951 14.3485 17.7076C14.1605 17.5201 14.0545 17.2656 14.054 17ZM3.007 17C3.007 16.448 3.457 16 4.011 16C4.565 16 5.014 16.448 5.014 17C5.014 17.552 4.565 18 4.011 18C3.87942 18.0003 3.74907 17.9746 3.6274 17.9245C3.50573 17.8744 3.39512 17.8008 3.30189 17.7079C3.20866 17.6151 3.13464 17.5048 3.08404 17.3833C3.03344 17.2618 3.00726 17.1316 3.007 17Z" fill="#5C5F62"/>
</g>
<defs>
<clipPath id="clip0_315_1081">
<rect width="20" height="20" fill="white"/>
</clipPath>
</defs>
</svg>
