<svg width="24" height="24" viewBox="0 0 24 24" fill="none" xmlns="http://www.w3.org/2000/svg">
<g clip-path="url(#clip0_599_3026)">
<path d="M11.625 0.375C5.20312 0.375 0 5.57812 0 12C0 18.4219 5.20312 23.625 11.625 23.625C18.0469 23.625 23.25 18.4219 23.25 12C23.25 5.57812 18.0469 0.375 11.625 0.375ZM11.625 21.375C6.45469 21.375 2.25 17.1703 2.25 12C2.25 6.82969 6.45469 2.625 11.625 2.625C16.7953 2.625 21 6.82969 21 12C21 17.1703 16.7953 21.375 11.625 21.375ZM15.5625 14.6531C14.5875 15.825 13.1484 16.5 11.625 16.5C10.1016 16.5 8.6625 15.8297 7.6875 14.6531C7.28906 14.175 6.58125 14.1141 6.10312 14.5078C5.625 14.9062 5.56406 15.6141 5.95781 16.0922C7.36406 17.7797 9.43125 18.7453 11.625 18.7453C13.8188 18.7453 15.8859 17.7797 17.2922 16.0922C17.6906 15.6141 17.625 14.9062 17.1469 14.5078C16.6687 14.1141 15.9609 14.175 15.5625 14.6531ZM6.39844 9.89062C6.75938 9.24844 7.29844 8.87812 7.875 8.87812C8.45156 8.87812 8.99063 9.24844 9.35156 9.89062L9.79688 10.6875C9.89531 10.8609 10.0875 10.9078 10.2328 10.8609C10.4016 10.8094 10.5141 10.65 10.5 10.4719C10.3453 8.49844 8.99063 7.125 7.875 7.125C6.75938 7.125 5.40469 8.49844 5.25 10.4719C5.23594 10.6453 5.34844 10.8094 5.51719 10.8609C5.67656 10.9125 5.86406 10.8375 5.95312 10.6875L6.39844 9.89062ZM15.375 7.125C14.2594 7.125 12.9047 8.49844 12.75 10.4719C12.7359 10.6453 12.8484 10.8094 13.0172 10.8609C13.1813 10.9125 13.3641 10.8375 13.4531 10.6875L13.8984 9.89062C14.2594 9.24844 14.7984 8.87812 15.375 8.87812C15.9516 8.87812 16.4906 9.24844 16.8516 9.89062L17.2969 10.6875C17.3953 10.8609 17.5875 10.9078 17.7328 10.8609C17.9016 10.8094 18.0141 10.65 18 10.4719C17.8453 8.49844 16.4906 7.125 15.375 7.125Z" fill="black"/>
</g>
<defs>
<clipPath id="clip0_599_3026">
<rect width="23.25" height="24" fill="white"/>
</clipPath>
</defs>
</svg>
