<svg width="15" height="24" viewBox="0 0 15 24" fill="none" xmlns="http://www.w3.org/2000/svg">
<path d="M15 2.25V3.75C15 3.94891 14.921 4.13968 14.7803 4.28033C14.6397 4.42098 14.4489 4.5 14.25 4.5H11.3081L7.55813 19.5H9.75C9.94891 19.5 10.1397 19.579 10.2803 19.7197C10.421 19.8603 10.5 20.0511 10.5 20.25V21.75C10.5 21.9489 10.421 22.1397 10.2803 22.2803C10.1397 22.421 9.94891 22.5 9.75 22.5H0.75C0.551088 22.5 0.360322 22.421 0.21967 22.2803C0.0790176 22.1397 0 21.9489 0 21.75V20.25C0 20.0511 0.0790176 19.8603 0.21967 19.7197C0.360322 19.579 0.551088 19.5 0.75 19.5H3.69187L7.44187 4.5H5.25C5.05109 4.5 4.86032 4.42098 4.71967 4.28033C4.57902 4.13968 4.5 3.94891 4.5 3.75V2.25C4.5 2.05109 4.57902 1.86032 4.71967 1.71967C4.86032 1.57902 5.05109 1.5 5.25 1.5H14.25C14.4489 1.5 14.6397 1.57902 14.7803 1.71967C14.921 1.86032 15 2.05109 15 2.25Z" fill="black"/>
</svg>
