<svg width="24" height="24" viewBox="0 0 24 24" fill="none" xmlns="http://www.w3.org/2000/svg">
<g clip-path="url(#clip0_599_3047)">
<path d="M15.31 8.68972C18.1106 11.4933 18.0722 15.9881 15.3268 18.7486C15.3217 18.7542 15.3156 18.7603 15.31 18.766L12.16 21.916C9.38168 24.6942 4.86157 24.6939 2.08371 21.916C-0.69457 19.1382 -0.69457 14.6175 2.08371 11.8397L3.82305 10.1004C4.2843 9.63912 5.07865 9.94569 5.10246 10.5975C5.13284 11.4282 5.2818 12.2629 5.55668 13.0688C5.64977 13.3417 5.58326 13.6436 5.37935 13.8475L4.7659 14.461C3.45218 15.7747 3.41098 17.9138 4.71176 19.2403C6.02538 20.58 8.18454 20.5879 9.50824 19.2642L12.6582 16.1147C13.9797 14.7933 13.9742 12.6574 12.6582 11.3414C12.4848 11.1683 12.31 11.0337 12.1735 10.9398C12.0769 10.8735 11.9972 10.7855 11.9407 10.6829C11.8841 10.5803 11.8524 10.4659 11.8479 10.3489C11.8293 9.85353 12.0048 9.34311 12.3962 8.9517L13.3831 7.96475C13.6419 7.70595 14.0479 7.67417 14.348 7.88361C14.6917 8.12359 15.0136 8.39333 15.31 8.68972ZM21.9163 2.08307C19.1384 -0.694839 14.6183 -0.695214 11.84 2.08307L8.69004 5.23306C8.68441 5.23869 8.67832 5.24478 8.67316 5.25041C5.92788 8.01097 5.8894 12.5058 8.69004 15.3093C8.98642 15.6057 9.3083 15.8754 9.65196 16.1154C9.95205 16.3248 10.3581 16.293 10.6168 16.0342L11.6037 15.0473C11.9951 14.6559 12.1706 14.1455 12.1521 13.6501C12.1476 13.5331 12.1158 13.4187 12.0593 13.3161C12.0027 13.2135 11.923 13.1255 11.8264 13.0592C11.6899 12.9652 11.5152 12.8307 11.3417 12.6575C10.0258 11.3416 10.0203 9.20572 11.3417 7.88427L14.4917 4.73474C15.8154 3.41103 17.9745 3.419 19.2882 4.75864C20.589 6.0852 20.5478 8.2243 19.2341 9.53802L18.6206 10.1515C18.4167 10.3554 18.3502 10.6572 18.4433 10.9302C18.7181 11.7361 18.8671 12.5707 18.8975 13.4015C18.9213 14.0533 19.7156 14.3599 20.1769 13.8986L21.9162 12.1593C24.6946 9.3815 24.6946 4.86088 21.9163 2.08307Z" fill="black"/>
</g>
<defs>
<clipPath id="clip0_599_3047">
<rect width="24" height="24" fill="white"/>
</clipPath>
</defs>
</svg>
