<svg width="35" height="32" viewBox="0 0 35 32" fill="none" xmlns="http://www.w3.org/2000/svg">
<path d="M0.601406 20.5H12.8986C12.9776 20.5001 13.0558 20.4845 13.1288 20.4543C13.2018 20.4241 13.2681 20.3798 13.324 20.324C13.3798 20.2681 13.4241 20.2018 13.4543 20.1288C13.4845 20.0558 13.5001 19.9776 13.5 19.8986V18.1014C13.5001 18.0224 13.4845 17.9442 13.4543 17.8712C13.4241 17.7982 13.3798 17.7319 13.324 17.676C13.2681 17.6202 13.2018 17.5759 13.1288 17.5457C13.0558 17.5154 12.9776 17.4999 12.8986 17.5H0.601406C0.522411 17.4999 0.444179 17.5154 0.371185 17.5457C0.298192 17.5759 0.231869 17.6202 0.176011 17.676C0.120153 17.7319 0.0758556 17.7982 0.045654 17.8712C0.0154523 17.9442 -6.14598e-05 18.0224 1.82979e-07 18.1014V19.8986C-6.14598e-05 19.9776 0.0154523 20.0558 0.045654 20.1288C0.0758556 20.2018 0.120153 20.2681 0.176011 20.324C0.231869 20.3798 0.298192 20.4241 0.371185 20.4543C0.444179 20.4845 0.522411 20.5001 0.601406 20.5ZM0.601406 8.5H12.8986C12.9776 8.50006 13.0558 8.48455 13.1288 8.45435C13.2018 8.42414 13.2681 8.37985 13.324 8.32399C13.3798 8.26813 13.4241 8.20181 13.4543 8.12881C13.4845 8.05582 13.5001 7.97759 13.5 7.89859V6.10141C13.5001 6.02241 13.4845 5.94418 13.4543 5.87119C13.4241 5.79819 13.3798 5.73187 13.324 5.67601C13.2681 5.62015 13.2018 5.57586 13.1288 5.54565C13.0558 5.51545 12.9776 5.49994 12.8986 5.5H0.601406C0.522411 5.49994 0.444179 5.51545 0.371185 5.54565C0.298192 5.57586 0.231869 5.62015 0.176011 5.67601C0.120153 5.73187 0.0758556 5.79819 0.045654 5.87119C0.0154523 5.94418 -6.14598e-05 6.02241 1.82979e-07 6.10141V7.89859C-6.14598e-05 7.97759 0.0154523 8.05582 0.045654 8.12881C0.0758556 8.20181 0.120153 8.26813 0.176011 8.32399C0.231869 8.37985 0.298192 8.42414 0.371185 8.45435C0.444179 8.48455 0.522411 8.50006 0.601406 8.5ZM20.25 11.5H0.75C0.551088 11.5 0.360322 11.579 0.21967 11.7197C0.0790178 11.8603 1.82979e-07 12.0511 1.82979e-07 12.25V13.75C1.82979e-07 13.9489 0.0790178 14.1397 0.21967 14.2803C0.360322 14.421 0.551088 14.5 0.75 14.5H20.25C20.4489 14.5 20.6397 14.421 20.7803 14.2803C20.921 14.1397 21 13.9489 21 13.75V12.25C21 12.0511 20.921 11.8603 20.7803 11.7197C20.6397 11.579 20.4489 11.5 20.25 11.5ZM20.25 23.5H0.75C0.551088 23.5 0.360322 23.579 0.21967 23.7197C0.0790178 23.8603 1.82979e-07 24.0511 1.82979e-07 24.25V25.75C1.82979e-07 25.9489 0.0790178 26.1397 0.21967 26.2803C0.360322 26.421 0.551088 26.5 0.75 26.5H20.25C20.4489 26.5 20.6397 26.421 20.7803 26.2803C20.921 26.1397 21 25.9489 21 25.75V24.25C21 24.0511 20.921 23.8603 20.7803 23.7197C20.6397 23.579 20.4489 23.5 20.25 23.5Z" fill="black"/>
<path d="M29.586 14.8H34.4104C34.7442 14.8 34.911 15.2031 34.6748 15.4394L32.2635 17.8525C32.1173 17.9988 31.8792 17.9988 31.7329 17.8525L29.3217 15.4394C29.0854 15.2031 29.2523 14.8 29.586 14.8Z" fill="black"/>
</svg>
