<svg width="24" height="24" viewBox="0 0 24 24" fill="none" xmlns="http://www.w3.org/2000/svg">
<g clip-path="url(#clip0_19250_426)">
<path fill-rule="evenodd" clip-rule="evenodd" d="M12 0C5.3832 0 0 5.3832 0 12C0 14.0736 0.54 16.104 1.5648 17.9088L0.1212 21.558C-0.4284 23.0088 0.9924 24.4296 2.4432 23.8788L6.0912 22.434C7.89142 23.4602 9.92784 23.9999 12 24C18.6168 24 24 18.6168 24 12C24 5.3832 18.6168 0 12 0ZM6.3516 11.1516C6.46278 11.0398 6.59498 10.951 6.74058 10.8905C6.88618 10.8299 7.04231 10.7988 7.2 10.7988C7.35769 10.7988 7.51382 10.8299 7.65942 10.8905C7.80502 10.951 7.93722 11.0398 8.0484 11.1516C8.16022 11.2628 8.24896 11.395 8.30951 11.5406C8.37007 11.6862 8.40124 11.8423 8.40124 12C8.40124 12.1577 8.37007 12.3138 8.30951 12.4594C8.24896 12.605 8.16022 12.7372 8.0484 12.8484C7.93722 12.9602 7.80502 13.049 7.65942 13.1095C7.51382 13.1701 7.35769 13.2012 7.2 13.2012C7.04231 13.2012 6.88618 13.1701 6.74058 13.1095C6.59498 13.049 6.46278 12.9602 6.3516 12.8484C6.23978 12.7372 6.15104 12.605 6.09049 12.4594C6.02993 12.3138 5.99876 12.1577 5.99876 12C5.99876 11.8423 6.02993 11.6862 6.09049 11.5406C6.15104 11.395 6.23978 11.2628 6.3516 11.1516ZM11.1516 11.1516C11.2628 11.0398 11.395 10.951 11.5406 10.8905C11.6862 10.8299 11.8423 10.7988 12 10.7988C12.1577 10.7988 12.3138 10.8299 12.4594 10.8905C12.605 10.951 12.7372 11.0398 12.8484 11.1516C12.9602 11.2628 13.049 11.395 13.1095 11.5406C13.1701 11.6862 13.2012 11.8423 13.2012 12C13.2012 12.1577 13.1701 12.3138 13.1095 12.4594C13.049 12.605 12.9602 12.7372 12.8484 12.8484C12.6229 13.0725 12.3179 13.1983 12 13.1983C11.6821 13.1983 11.3771 13.0725 11.1516 12.8484C10.9275 12.6229 10.8017 12.3179 10.8017 12C10.8017 11.6821 10.9275 11.3771 11.1516 11.1516ZM16.8 10.8C16.6423 10.7995 16.486 10.8302 16.3402 10.8904C16.1944 10.9505 16.0619 11.0389 15.9504 11.1504C15.8389 11.2619 15.7505 11.3944 15.6904 11.5402C15.6302 11.686 15.5995 11.8423 15.6 12C15.5995 12.1577 15.6302 12.314 15.6904 12.4598C15.7505 12.6056 15.8389 12.7381 15.9504 12.8496C16.0619 12.9611 16.1944 13.0495 16.3402 13.1096C16.486 13.1698 16.6423 13.2005 16.8 13.2C16.9577 13.2005 17.114 13.1698 17.2598 13.1096C17.4056 13.0495 17.5381 12.9611 17.6496 12.8496C17.7611 12.7381 17.8495 12.6056 17.9096 12.4598C17.9698 12.314 18.0005 12.1577 18 12C18.0005 11.8423 17.9698 11.686 17.9096 11.5402C17.8495 11.3944 17.7611 11.2619 17.6496 11.1504C17.5381 11.0389 17.4056 10.9505 17.2598 10.8904C17.114 10.8302 16.9577 10.7995 16.8 10.8Z" fill="#B0AAD0"/>
</g>
<defs>
<clipPath id="clip0_19250_426">
<rect width="24" height="24" fill="white"/>
</clipPath>
</defs>
</svg>
