<svg width="19" height="24" viewBox="0 0 19 24" fill="none" xmlns="http://www.w3.org/2000/svg">
<path d="M9.22498 0C9.54323 0 9.84846 0.126428 10.0735 0.351472C10.2985 0.576516 10.425 0.88174 10.425 1.2V3.6384L10.4238 3.6636L10.4214 3.6996C12.0997 3.9829 13.6235 4.85145 14.7225 6.1512C15.8215 7.45095 16.4246 9.09791 16.425 10.8C16.425 14.5116 17.175 15.9744 18.3438 18.252L18.3846 18.3336C18.5886 18.7296 18.3006 19.2 17.8542 19.2H0.595776C0.493795 19.2001 0.393499 19.174 0.304508 19.1242C0.215517 19.0744 0.140816 19.0025 0.0875703 18.9156C0.0343241 18.8286 0.00431879 18.7294 0.000432424 18.6275C-0.00345394 18.5256 0.018909 18.4244 0.0653762 18.3336L0.106176 18.252C1.27498 15.9744 2.02498 14.5116 2.02498 10.8C2.02505 9.0977 2.62808 7.45046 3.72708 6.15046C4.82609 4.85046 6.35003 3.98174 8.02858 3.6984L8.02618 3.6504C8.02535 3.63361 8.02495 3.61681 8.02498 3.6V1.2C8.02498 0.88174 8.1514 0.576516 8.37645 0.351472C8.60149 0.126428 8.90672 0 9.22498 0V0ZM11.625 21.6C11.625 22.2365 11.3721 22.847 10.922 23.2971C10.4719 23.7471 9.8615 24 9.22498 24C8.58846 24 7.97801 23.7471 7.52792 23.2971C7.07783 22.847 6.82498 22.2365 6.82498 21.6H11.625Z" fill="#B0AAD0"/>
</svg>
