<svg width="38" height="32" viewBox="0 0 38 32" fill="none" xmlns="http://www.w3.org/2000/svg">
<path d="M2.89547 22.7969L3.71578 21.8523C3.87904 21.6703 3.96437 21.4315 3.95344 21.1872V21.032C3.95344 20.6875 3.77344 20.5 3.42188 20.5H0.75C0.650544 20.5 0.555161 20.5395 0.484835 20.6098C0.414509 20.6802 0.375 20.7755 0.375 20.875V21.625C0.375 21.7245 0.414509 21.8198 0.484835 21.8902C0.555161 21.9605 0.650544 22 0.75 22H1.82016C1.63831 22.1832 1.46619 22.3758 1.30453 22.577L1.04156 22.9052C0.854062 23.1428 0.795469 23.38 0.910313 23.6027L0.959531 23.6931C1.10016 23.9631 1.25438 24.0625 1.53375 24.0625H1.75547C2.23969 24.0625 2.50266 24.1769 2.50266 24.4886C2.50266 24.7098 2.30578 24.8739 1.82953 24.8739C1.58069 24.8719 1.33453 24.8223 1.10438 24.7277C0.800156 24.5458 0.554062 24.5636 0.373125 24.8739L0.111094 25.3103C-0.0632813 25.5977 -0.0384375 25.8597 0.234375 26.0575C0.595781 26.2773 1.18969 26.5 1.96875 26.5C3.57 26.5 4.24219 25.4336 4.24219 24.4319C4.24078 23.7578 3.81469 23.0369 2.89547 22.7969ZM23.25 14.5H8.25C8.05109 14.5 7.86032 14.579 7.71967 14.7197C7.57902 14.8603 7.5 15.0511 7.5 15.25V16.75C7.5 16.9489 7.57902 17.1397 7.71967 17.2803C7.86032 17.421 8.05109 17.5 8.25 17.5H23.25C23.4489 17.5 23.6397 17.421 23.7803 17.2803C23.921 17.1397 24 16.9489 24 16.75V15.25C24 15.0511 23.921 14.8603 23.7803 14.7197C23.6397 14.579 23.4489 14.5 23.25 14.5ZM23.25 7H8.25C8.05109 7 7.86032 7.07902 7.71967 7.21967C7.57902 7.36032 7.5 7.55109 7.5 7.75V9.25C7.5 9.44891 7.57902 9.63968 7.71967 9.78033C7.86032 9.92098 8.05109 10 8.25 10H23.25C23.4489 10 23.6397 9.92098 23.7803 9.78033C23.921 9.63968 24 9.44891 24 9.25V7.75C24 7.55109 23.921 7.36032 23.7803 7.21967C23.6397 7.07902 23.4489 7 23.25 7ZM23.25 22H8.25C8.05109 22 7.86032 22.079 7.71967 22.2197C7.57902 22.3603 7.5 22.5511 7.5 22.75V24.25C7.5 24.4489 7.57902 24.6397 7.71967 24.7803C7.86032 24.921 8.05109 25 8.25 25H23.25C23.4489 25 23.6397 24.921 23.7803 24.7803C23.921 24.6397 24 24.4489 24 24.25V22.75C24 22.5511 23.921 22.3603 23.7803 22.2197C23.6397 22.079 23.4489 22 23.25 22ZM0.75 11.5H3.75C3.84946 11.5 3.94484 11.4605 4.01516 11.3902C4.08549 11.3198 4.125 11.2245 4.125 11.125V10.375C4.125 10.2755 4.08549 10.1802 4.01516 10.1098C3.94484 10.0395 3.84946 10 3.75 10H3V5.875C3 5.77554 2.96049 5.68016 2.89016 5.60984C2.81984 5.53951 2.72446 5.5 2.625 5.5H1.5C1.43049 5.50012 1.36239 5.51956 1.30329 5.55615C1.24419 5.59274 1.19642 5.64503 1.16531 5.70719L0.790313 6.45719C0.761728 6.51431 0.748209 6.57779 0.751036 6.6416C0.753863 6.70541 0.772943 6.76744 0.806467 6.82181C0.839991 6.87618 0.886847 6.92109 0.942593 6.95227C0.998338 6.98346 1.06113 6.99989 1.125 7H1.5V10H0.75C0.650544 10 0.555161 10.0395 0.484835 10.1098C0.414509 10.1802 0.375 10.2755 0.375 10.375V11.125C0.375 11.2245 0.414509 11.3198 0.484835 11.3902C0.555161 11.4605 0.650544 11.5 0.75 11.5ZM0.566719 19H3.75C3.84946 19 3.94484 18.9605 4.01516 18.8902C4.08549 18.8198 4.125 18.7245 4.125 18.625V17.875C4.125 17.7755 4.08549 17.6802 4.01516 17.6098C3.94484 17.5395 3.84946 17.5 3.75 17.5H1.93687C2.09109 17.0177 4.20281 16.6244 4.20281 14.8544C4.20281 13.4922 3.03094 13 2.11828 13C1.11703 13 0.533906 13.4688 0.221719 13.8789C0.016875 14.1409 0.0810938 14.387 0.352969 14.5994L0.755156 14.9219C1.01813 15.1356 1.27078 15.0377 1.51078 14.8075C1.62916 14.6915 1.78848 14.6268 1.95422 14.6275C2.11031 14.6275 2.38922 14.7006 2.38922 15.0377C2.39062 15.6339 0 16.0614 0 18.2777V18.4652C0 18.8125 0.238125 19 0.566719 19Z" fill="black"/>
<path d="M32.586 14.8H37.4104C37.7442 14.8 37.911 15.2031 37.6748 15.4394L35.2635 17.8525C35.1173 17.9988 34.8792 17.9988 34.7329 17.8525L32.3217 15.4394C32.0854 15.2031 32.2523 14.8 32.586 14.8Z" fill="black"/>
</svg>
