<svg width="21" height="24" viewBox="0 0 21 24" fill="none" xmlns="http://www.w3.org/2000/svg">
<path d="M21 2.25V3.75C21 3.94891 20.921 4.13968 20.7803 4.28033C20.6397 4.42098 20.4489 4.5 20.25 4.5H18V21.75C18 21.9489 17.921 22.1397 17.7803 22.2803C17.6397 22.421 17.4489 22.5 17.25 22.5H15.75C15.5511 22.5 15.3603 22.421 15.2197 22.2803C15.079 22.1397 15 21.9489 15 21.75V4.5H13.5V21.75C13.5 21.9489 13.421 22.1397 13.2803 22.2803C13.1397 22.421 12.9489 22.5 12.75 22.5H11.25C11.0511 22.5 10.8603 22.421 10.7197 22.2803C10.579 22.1397 10.5 21.9489 10.5 21.75V16.5H9C7.01088 16.5 5.10322 15.7098 3.6967 14.3033C2.29018 12.8968 1.5 10.9891 1.5 9C1.5 7.01088 2.29018 5.10322 3.6967 3.6967C5.10322 2.29018 7.01088 1.5 9 1.5H20.25C20.4489 1.5 20.6397 1.57902 20.7803 1.71967C20.921 1.86032 21 2.05109 21 2.25Z" fill="black"/>
</svg>
