<svg width="38" height="32" viewBox="0 0 38 32" fill="none" xmlns="http://www.w3.org/2000/svg">
<path d="M21.75 16H18V13C18 11.3453 19.3453 10 21 10H21.375C21.9984 10 22.5 9.49844 22.5 8.875V6.625C22.5 6.00156 21.9984 5.5 21.375 5.5H21C16.8563 5.5 13.5 8.85625 13.5 13V24.25C13.5 25.4922 14.5078 26.5 15.75 26.5H21.75C22.9922 26.5 24 25.4922 24 24.25V18.25C24 17.0078 22.9922 16 21.75 16ZM8.25 16H4.5V13C4.5 11.3453 5.84531 10 7.5 10H7.875C8.49844 10 9 9.49844 9 8.875V6.625C9 6.00156 8.49844 5.5 7.875 5.5H7.5C3.35625 5.5 0 8.85625 0 13V24.25C0 25.4922 1.00781 26.5 2.25 26.5H8.25C9.49219 26.5 10.5 25.4922 10.5 24.25V18.25C10.5 17.0078 9.49219 16 8.25 16Z" fill="black"/>
<path d="M32.586 14.8H37.4104C37.7442 14.8 37.911 15.2031 37.6748 15.4394L35.2635 17.8525C35.1173 17.9988 34.8792 17.9988 34.7329 17.8525L32.3217 15.4394C32.0854 15.2031 32.2523 14.8 32.586 14.8Z" fill="black"/>
</svg>
