<svg width="42" height="42" viewBox="0 0 42 42" fill="none" xmlns="http://www.w3.org/2000/svg">
<path fill-rule="evenodd" clip-rule="evenodd" d="M23.8957 0C24.7309 0.000735219 25.5315 0.333092 26.1217 0.924L34.7779 9.576C35.0706 9.8689 35.3027 10.2166 35.4609 10.5993C35.6191 10.982 35.7003 11.3921 35.6998 11.8062V38.85C35.6998 39.6854 35.3679 40.4866 34.7772 41.0774C34.1864 41.6681 33.3852 42 32.5498 42H9.4498C8.61437 42 7.81316 41.6681 7.22242 41.0774C6.63168 40.4866 6.2998 39.6854 6.2998 38.85V3.15C6.2998 2.31457 6.63168 1.51335 7.22242 0.922614C7.81316 0.331874 8.61437 0 9.4498 0L23.8957 0ZM28.7845 22.4847C28.3907 22.8784 27.8566 23.0996 27.2998 23.0996C26.743 23.0996 26.2089 22.8784 25.8151 22.4847L23.0998 19.7694V27.3C23.0998 27.857 22.8786 28.3911 22.4847 28.7849C22.0909 29.1787 21.5568 29.4 20.9998 29.4C20.4428 29.4 19.9087 29.1787 19.5149 28.7849C19.1211 28.3911 18.8998 27.857 18.8998 27.3V19.7694L16.1845 22.4847C15.7884 22.8672 15.258 23.0789 14.7074 23.0741C14.1567 23.0693 13.63 22.8485 13.2407 22.4591C12.8513 22.0698 12.6305 21.5431 12.6257 20.9924C12.6209 20.4418 12.8326 19.9114 13.2151 19.5153L19.5151 13.2153C19.9089 12.8216 20.443 12.6004 20.9998 12.6004C21.5566 12.6004 22.0907 12.8216 22.4845 13.2153L28.7845 19.5153C29.1782 19.9091 29.3994 20.4432 29.3994 21C29.3994 21.5568 29.1782 22.0909 28.7845 22.4847Z" fill="#FBA457"/>
</svg>
