<svg width="12" height="10" viewBox="0 0 12 10" fill="none" xmlns="http://www.w3.org/2000/svg">
<path d="M3.29285 9.70729L0.292849 6.70729C0.200004 6.61445 0.126356 6.50422 0.0761089 6.38292C0.0258618 6.26161 1.95655e-09 6.13159 0 6.00029C-1.95655e-09 5.86899 0.0258618 5.73897 0.0761089 5.61766C0.126356 5.49636 0.200004 5.38614 0.292849 5.29329C0.385693 5.20045 0.495916 5.1268 0.617223 5.07655C0.738531 5.0263 0.868547 5.00044 0.999849 5.00044C1.13115 5.00044 1.26117 5.0263 1.38247 5.07655C1.50378 5.1268 1.614 5.20045 1.70685 5.29329L3.94285 7.52929L10.2408 0.34929C10.3262 0.249617 10.4304 0.167733 10.5474 0.108312C10.6644 0.0488915 10.7919 0.0130984 10.9228 0.00297685C11.0536 -0.00714474 11.1852 0.00860329 11.3099 0.0493216C11.4347 0.0900399 11.5502 0.154931 11.6498 0.24029C11.7495 0.325649 11.8314 0.429805 11.8908 0.54681C11.9502 0.663815 11.986 0.791378 11.9962 0.922216C12.0063 1.05305 11.9905 1.1846 11.9498 1.30936C11.9091 1.43411 11.8442 1.54962 11.7588 1.64929L4.75885 9.64929C4.66942 9.75408 4.5593 9.83926 4.4354 9.89948C4.3115 9.95971 4.1765 9.99369 4.03885 9.99929C3.90121 10.0037 3.76412 9.98003 3.63589 9.92984C3.50765 9.87964 3.39095 9.80393 3.29285 9.70729Z" fill="#5C5F62"/>
</svg>
